<svg width="260" height="111" viewBox="0 0 260 111" fill="none" xmlns="http://www.w3.org/2000/svg">
<path d="M121.321 110C131.846 86.7374 141.316 69.6919 150.466 57.2557C159.615 44.8194 170.588 28.1264 177.563 17.4641C184.537 6.80187 185.645 4.3094 186.216 2.60998C186.787 0.910564 186.787 0.0797381 186.371 2.55963C185.956 5.03952 185.125 10.8553 184.697 22.1596C184.269 33.4638 184.027 43.7983 184.684 60.8559C185.342 77.9135 191.537 92.68 192.234 94.1812C192.93 95.6825 189.072 98.563 195.163 94.0637C201.254 89.5645 203.935 63.4537 202.88 62.1693C201.826 60.8848 194.211 72.0075 187.261 83.7498C180.311 95.492 179.794 103.656 179.791 106.337C179.788 109.019 180.552 108.202 181.461 107.764C182.37 107.326 182.331 99.2073 181.621 93.2749C180.911 87.3424 180.346 87.9392 175.775 84.8575C171.204 81.7759 161.265 81.9571 158.418 83.1329C155.571 84.3087 155.699 82.178 156.433 85.3736C157.167 88.5693 173.26 80.1647 175.158 78.2697C177.056 76.3746 176.43 75.8947 172.972 73.5239C169.514 71.1531 162.313 67.5529 154.31 64.7289C146.307 61.9049 137.721 59.9663 128.589 58.9677C119.458 57.969 110.041 57.969 127.486 61.1538C144.931 64.3386 185.146 70.1843 216.926 73.9897C248.706 77.795 261.612 77.4853 258.568 77.9675C255.525 78.4498 255.497 80.1215 245.996 71.43C236.494 62.7386 214.571 53.88 215.176 52.6651C215.781 51.4503 215.877 53.4708 216.435 54.0414C216.993 54.6121 217.26 54.9826 218.668 54.0582C220.075 53.1339 221.16 49.1815 221.06 47.3571C220.959 45.5326 220.644 45.3975 216.486 46.7696C212.327 48.1417 204.295 51.742 166.089 53.5967C127.884 55.4513 59.7493 55.4513 27.0038 54.0666C-5.74175 52.6819 -1.03324 49.9125 6.37783 46.4088C13.7889 42.905 23.7599 38.7509 48.0074 36.334C72.255 33.917 110.477 33.3631 135.707 34.0471C160.936 34.731 172.015 36.6696 185.2 40.1608C198.386 43.6519 213.342 48.6369 221.324 51.6203C229.306 54.6037 229.608 52.1243 230.145 59.1859C230.682 66.2474 231.066 77.2492 228.76 77.2752C226.455 77.3012 227.316 64.8108 227.766 60.8055C228.216 56.8003 229.843 60.1845 230.695 61.7245C231.547 63.2644 231.824 65.203 232.244 66.6171C232.663 68.0312 233.217 68.862 233.788 69.718" stroke="white" stroke-width="2" stroke-linecap="round"/>
</svg>
