<svg width="114" height="34" viewBox="0 0 114 34" fill="none" xmlns="http://www.w3.org/2000/svg">
<path d="M17.3104 22.4106H14.6157V0H0V18.9111C0 23.766 1.43328 27.3729 4.29985 29.6379C7.21296 31.9037 11.0043 33.0595 15.767 33.0595C20.5297 33.0595 24.321 31.9037 27.1876 29.6379C30.1007 27.372 31.534 23.766 31.534 18.9111V0H17.3104V22.4106Z" fill="white"/>
<path d="M81.7428 0H67.4942V9.95509H81.7428V0Z" fill="white"/>
<path d="M47.8517 22.4106V9.95509H64.7083C64.1577 7.90946 63.258 6.10555 61.9035 4.53082C59.3171 1.52549 55.3252 0 49.9278 0H34.2879V32.3666H49.9278C55.3261 32.3666 59.4988 30.8867 62.1344 27.8814C63.5203 26.3013 64.3564 24.4777 64.8381 22.4115H47.8517V22.4106Z" fill="white"/>
<path d="M81.7428 22.4104H67.4942V32.3655H81.7428V22.4104Z" fill="white"/>
<path d="M106.377 22.4104H91.9047V32.3655H106.377V22.4104Z" fill="white"/>
<path d="M113.959 0H84.321V9.95509H113.959V0Z" fill="white"/>
</svg>
