<svg width="297" height="40" viewBox="0 0 297 40" fill="none" xmlns="http://www.w3.org/2000/svg">
<g clip-path="url(#clip0_58_508)">
<path d="M20.745 27.1028H17.5155V0.215698H0V22.9046C0 28.7297 1.71699 33.0563 5.15256 35.7752C8.64362 38.4941 13.1874 39.8797 18.8948 39.8797C24.6023 39.8797 29.1461 38.4925 32.5816 35.7752C36.0727 33.0563 37.7897 28.7297 37.7897 22.9046V0.215698H20.7434V27.1044L20.745 27.1028Z" fill="black"/>
<path d="M97.9636 0.21582H80.8872V12.1595H97.9636V0.21582Z" fill="black"/>
<path d="M57.3443 27.1029V12.1595H77.5455C76.8859 9.70566 75.8079 7.54073 74.1844 5.65196C71.085 2.04586 66.3018 0.21582 59.8318 0.21582H41.0891V39.0481H59.8318C66.3002 39.0481 71.3022 37.2737 74.4603 33.6675C76.1218 31.7708 77.1238 29.5837 77.7008 27.1045H57.3443V27.1029Z" fill="black"/>
<path d="M97.9636 27.1031H80.8872V39.0468H97.9636V27.1031Z" fill="black"/>
<path d="M127.485 27.1031H110.141V39.0468H127.485V27.1031Z" fill="black"/>
<path d="M136.572 0.21582H101.052V12.1595H136.572V0.21582Z" fill="black"/>
<path d="M153.194 6.15855V0.212921H155.903V6.55535C155.903 7.73305 156.401 8.3219 157.398 8.3219C158.395 8.3219 158.893 7.73305 158.893 6.55535V0.212921H161.503V6.16014C161.503 7.46958 161.149 8.48856 160.445 9.21867C159.74 9.94878 158.709 10.3138 157.355 10.3138C156.001 10.3138 154.957 9.94878 154.251 9.21867C153.546 8.48856 153.194 7.46958 153.194 6.16014V6.15855Z" fill="black"/>
<path d="M162.958 0.212921H165.527L169.04 5.82048V0.212921H171.467V10.1011H169.026L165.386 4.29519V10.1011H162.958V0.212921Z" fill="black"/>
<path d="M173.036 0.212921H175.745V10.1011H173.036V0.212921Z" fill="black"/>
<path d="M176.676 0.212921H179.498L181.459 7.714L183.406 0.212921H185.848L182.942 10.1011H179.569L176.678 0.212921H176.676Z" fill="black"/>
<path d="M186.691 0.212921H193.844V2.13343H189.4V4.0825H193.21V5.99031H189.4V8.17905H193.844V10.0996H186.691V0.212921Z" fill="black"/>
<path d="M195.255 0.212921H199.686C200.965 0.212921 201.928 0.495442 202.571 1.06048C203.215 1.62552 203.538 2.39373 203.538 3.3635C203.538 4.57771 202.907 5.43479 201.647 5.93476L203.947 10.1011H201.027L199.179 6.47123H197.966V10.1011H195.256V0.212921H195.255ZM197.964 4.66183H199.263C199.76 4.66183 200.125 4.5539 200.356 4.33645C200.586 4.12059 200.702 3.7857 200.702 3.33335C200.702 2.45721 200.222 2.01915 199.263 2.01915H197.964V4.66024V4.66183Z" fill="black"/>
<path d="M204.005 7.96619L205.839 6.62501C206.582 7.78366 207.456 8.36299 208.463 8.36299C208.876 8.36299 209.206 8.27569 209.45 8.1011C209.695 7.92651 209.817 7.69796 209.817 7.41543C209.817 7.15196 209.715 6.93769 209.514 6.77262C209.311 6.60755 208.97 6.46947 208.491 6.35519L207.362 6.10124C205.5 5.6965 204.569 4.70292 204.569 3.12049C204.569 2.27292 204.908 1.54281 205.585 0.931744C206.262 0.309564 207.269 6.10352e-05 208.605 6.10352e-05C209.471 6.10352e-05 210.264 0.169891 210.983 0.507963C211.703 0.847623 212.264 1.31267 212.67 1.90628L210.865 3.23476C210.15 2.33959 209.396 1.89358 208.607 1.89358C208.231 1.89358 207.93 1.96977 207.703 2.11897C207.478 2.26975 207.364 2.47767 207.364 2.74115C207.364 3.18397 207.721 3.48554 208.436 3.64585L209.565 3.88551C211.681 4.33786 212.739 5.39652 212.739 7.06308C212.739 7.9773 212.358 8.74868 211.595 9.38038C210.833 10.0026 209.79 10.3121 208.463 10.3121C207.427 10.3121 206.521 10.1041 205.739 9.68988C204.957 9.27563 204.38 8.70106 204.003 7.96619H204.005Z" fill="black"/>
<path d="M213.907 0.212921H216.617V10.1011H213.907V0.212921Z" fill="black"/>
<path d="M218.188 0.212921H222.208C223.798 0.212921 225.002 0.636702 225.82 1.48426C226.638 2.33183 227.047 3.55079 227.047 5.14275V5.17132C227.047 6.76327 226.638 7.98224 225.82 8.8298C225.002 9.67736 223.797 10.1011 222.208 10.1011H218.188V0.212921ZM220.897 8.25048H221.828C222.712 8.25048 223.332 8.01557 223.69 7.54417C224.047 7.07278 224.226 6.28235 224.226 5.17132V5.14275C224.226 4.03171 224.047 3.24129 223.69 2.76989C223.332 2.2985 222.712 2.06359 221.828 2.06359H220.897V8.25048Z" fill="black"/>
<path d="M230.25 0.212921H233.593L236.782 10.1011H233.96L233.367 8.03938H230.093L229.5 10.1011H227.058L230.247 0.212921H230.25ZM232.832 6.17443L231.732 2.41753L230.646 6.17443H232.832Z" fill="black"/>
<path d="M237.639 0.212921H241.66C243.25 0.212921 244.453 0.636702 245.272 1.48426C246.09 2.33183 246.499 3.55079 246.499 5.14275V5.17132C246.499 6.76327 246.09 7.98224 245.272 8.8298C244.453 9.67736 243.249 10.1011 241.66 10.1011H237.639V0.212921ZM240.349 8.25048H241.279C242.164 8.25048 242.784 8.01557 243.142 7.54417C243.499 7.07278 243.678 6.28235 243.678 5.17132V5.14275C243.678 4.03171 243.499 3.24129 243.142 2.76989C242.784 2.2985 242.164 2.06359 241.279 2.06359H240.349V8.25048Z" fill="black"/>
<path d="M250.733 0.212921H254.753C256.344 0.212921 257.547 0.636702 258.365 1.48426C259.183 2.33183 259.592 3.55079 259.592 5.14275V5.17132C259.592 6.76327 259.183 7.98224 258.365 8.8298C257.547 9.67736 256.342 10.1011 254.753 10.1011H250.733V0.212921ZM253.442 8.25048H254.373C255.258 8.25048 255.878 8.01557 256.236 7.54417C256.593 7.07278 256.772 6.28235 256.772 5.17132V5.14275C256.772 4.03171 256.593 3.24129 256.236 2.76989C255.878 2.2985 255.258 2.06359 254.373 2.06359H253.442V8.25048Z" fill="black"/>
<path d="M260.798 0.212921H267.951V2.13343H263.507V4.0825H267.317V5.99031H263.507V8.17905H267.951V10.0996H260.798V0.212921Z" fill="black"/>
<path d="M153.239 14.6908H157.26C158.85 14.6908 160.053 15.1146 160.871 15.9621C161.689 16.8097 162.098 18.0287 162.098 19.6206V19.6492C162.098 21.2411 161.689 22.4601 160.871 23.3077C160.053 24.1552 158.848 24.579 157.26 24.579H153.239V14.6908ZM155.948 22.7284H156.879C157.764 22.7284 158.384 22.4934 158.742 22.022C159.099 21.5507 159.278 20.7602 159.278 19.6492V19.6206C159.278 18.5096 159.099 17.7192 158.742 17.2478C158.384 16.7764 157.764 16.5415 156.879 16.5415H155.948V22.7284Z" fill="black"/>
<path d="M163.369 14.6908H166.079V24.579H163.369V14.6908Z" fill="black"/>
<path d="M166.966 22.4464L168.8 21.1052C169.544 22.2638 170.417 22.8432 171.424 22.8432C171.838 22.8432 172.167 22.7559 172.412 22.5813C172.656 22.4067 172.778 22.1781 172.778 21.8956C172.778 21.6321 172.676 21.4179 172.475 21.2528C172.272 21.0877 171.931 20.9496 171.452 20.8354L170.324 20.5814C168.461 20.1767 167.53 19.1831 167.53 17.6006C167.53 16.7531 167.869 16.023 168.546 15.4119C169.223 14.7897 170.23 14.4802 171.567 14.4802C172.432 14.4802 173.225 14.6501 173.945 14.9881C174.664 15.3278 175.226 15.7928 175.632 16.3864L173.826 17.7149C173.111 16.8197 172.358 16.3737 171.568 16.3737C171.192 16.3737 170.891 16.4499 170.664 16.5991C170.439 16.7499 170.325 16.9578 170.325 17.2213C170.325 17.6641 170.682 17.9657 171.397 18.126L172.526 18.3657C174.642 18.818 175.7 19.8767 175.7 21.5432C175.7 22.4575 175.319 23.2288 174.557 23.8605C173.794 24.4827 172.751 24.7922 171.424 24.7922C170.389 24.7922 169.482 24.5843 168.7 24.17C167.919 23.7558 167.341 23.1812 166.964 22.4464H166.966Z" fill="black"/>
<path d="M176.803 14.6909H183.956V16.6114H179.512V18.5605H183.322V20.4683H179.512V22.657H183.956V24.5775H176.803V14.6893V14.6909Z" fill="black"/>
<path d="M185.367 14.691H187.936L191.449 20.2986V14.691H193.876V24.5792H191.435L187.794 18.7733V24.5792H185.367V14.691ZM189.529 13.8149L189.232 13.645C188.998 13.5228 188.833 13.4609 188.739 13.4609C188.486 13.4609 188.249 13.6689 188.034 14.0831L187.06 13.5466C187.23 13.0943 187.463 12.7435 187.76 12.4943C188.056 12.2451 188.373 12.1198 188.712 12.1198C189.052 12.1198 189.408 12.2182 189.757 12.4166L190.039 12.5864C190.274 12.7086 190.439 12.7705 190.532 12.7705C190.786 12.7705 191.021 12.5642 191.238 12.1483L192.211 12.6848C192.042 13.1371 191.809 13.4879 191.512 13.7371C191.216 13.9863 190.903 14.1117 190.574 14.1117C190.198 14.1117 189.849 14.0133 189.529 13.8149Z" fill="black"/>
<path d="M195.074 19.6497V19.6211C195.074 18.0292 195.498 16.7769 196.344 15.8643C197.191 14.9421 198.315 14.4802 199.716 14.4802C201.118 14.4802 202.237 14.9421 203.074 15.8643C203.921 16.788 204.344 18.0403 204.344 19.6211V19.6497C204.344 21.2417 203.921 22.4987 203.074 23.4209C202.247 24.3351 201.127 24.7906 199.716 24.7906C198.305 24.7906 197.191 24.3335 196.344 23.4209C195.498 22.4987 195.074 21.2417 195.074 19.6497ZM201.522 19.6497V19.6211C201.522 17.3896 200.92 16.2738 199.716 16.2738C198.513 16.2738 197.896 17.3896 197.896 19.6211V19.6497C197.896 21.8813 198.503 22.9971 199.716 22.9971C200.929 22.9971 201.522 21.8813 201.522 19.6497Z" fill="black"/>
<path d="M205.964 24.5792H205.02V22.1079H207.517V24.5792L206.5 26.8251H205.118L205.964 24.5792Z" fill="black"/>
<path d="M212.202 14.6908H214.912V24.579H212.202V14.6908Z" fill="black"/>
<path d="M216.478 14.6908H219.046L222.559 20.2984V14.6908H224.987V24.579H222.545L218.905 18.7731V24.579H216.478V14.6908Z" fill="black"/>
<path d="M226.48 14.6908H229.049L232.562 20.2984V14.6908H234.989V24.579H232.548L228.908 18.7731V24.579H226.48V14.6908Z" fill="black"/>
<path d="M236.188 19.6497V19.6211C236.188 18.0292 236.612 16.7769 237.458 15.8643C238.305 14.9421 239.429 14.4802 240.83 14.4802C242.232 14.4802 243.351 14.9421 244.188 15.8643C245.035 16.788 245.458 18.0403 245.458 19.6211V19.6497C245.458 21.2417 245.035 22.4987 244.188 23.4209C243.361 24.3351 242.241 24.7906 240.83 24.7906C239.419 24.7906 238.305 24.3335 237.458 23.4209C236.612 22.4987 236.188 21.2417 236.188 19.6497ZM242.636 19.6497V19.6211C242.636 17.3896 242.034 16.2738 240.83 16.2738C239.627 16.2738 239.01 17.3896 239.01 19.6211V19.6497C239.01 21.8813 239.617 22.9971 240.83 22.9971C242.043 22.9971 242.636 21.8813 242.636 19.6497Z" fill="black"/>
<path d="M245.588 14.6908H248.41L250.371 22.1919L252.318 14.6908H254.76L251.854 24.579H248.481L245.59 14.6908H245.588Z" fill="black"/>
<path d="M257.409 14.6908H260.753L263.941 24.579H261.119L260.526 22.5173H257.252L256.659 24.579H254.218L257.406 14.6908H257.409ZM259.992 20.6523L258.891 16.8954L257.805 20.6523H259.992Z" fill="black"/>
<path d="M263.954 19.6491V19.6206C263.954 18.0667 264.363 16.8239 265.181 15.8907C266.009 14.9495 267.142 14.4781 268.582 14.4781C269.794 14.4781 270.75 14.786 271.446 15.4034C272.142 16.0208 272.575 16.889 272.745 18.0096L270.276 18.3064C270.183 17.6096 270.004 17.0985 269.741 16.7731C269.477 16.4478 269.106 16.2859 268.626 16.2859C267.394 16.2859 266.777 17.3969 266.777 19.619V19.6476C266.777 20.8713 266.942 21.7331 267.271 22.2331C267.61 22.7331 268.06 22.9822 268.624 22.9822C269.095 22.9822 269.471 22.8219 269.753 22.5013C270.035 22.1807 270.234 21.6395 270.346 20.876L272.829 21.1586C272.669 22.3553 272.22 23.2584 271.481 23.8711C270.743 24.4837 269.777 24.7885 268.582 24.7885C267.161 24.7885 266.037 24.3314 265.209 23.4187C264.372 22.4966 263.954 21.2395 263.954 19.6476V19.6491Z" fill="black"/>
<path d="M274.047 14.6908H276.756V24.579H274.047V14.6908Z" fill="black"/>
<path d="M278.023 19.6492V19.6206C278.023 18.0286 278.446 16.7763 279.293 15.8637C280.14 14.9415 281.264 14.4797 282.665 14.4797C284.067 14.4797 285.186 14.9415 286.023 15.8637C286.87 16.7875 287.293 18.0397 287.293 19.6206V19.6492C287.293 21.2411 286.87 22.4982 286.023 23.4203C285.196 24.3346 284.076 24.7901 282.665 24.7901C281.254 24.7901 280.14 24.333 279.293 23.4203C278.446 22.4982 278.023 21.2411 278.023 19.6492ZM284.471 19.6492V19.6206C284.471 17.389 283.869 16.2732 282.665 16.2732C281.462 16.2732 280.845 17.389 280.845 19.6206V19.6492C280.845 21.8808 281.452 22.9966 282.665 22.9966C283.878 22.9966 284.471 21.8808 284.471 19.6492ZM282.51 12.2608H284.88L283.512 14.0543H281.804L282.51 12.2608Z" fill="black"/>
<path d="M288.494 14.6908H291.062L294.575 20.2984V14.6908H297.003V24.579H294.561L290.921 18.7731V24.579H288.494V14.6908Z" fill="black"/>
<path d="M155.89 35.8513L152.645 29.1692H155.565L157.442 33.3641L159.333 29.1692H161.83L158.599 35.8513V39.0574H155.89V35.8513Z" fill="black"/>
<path d="M167.981 31.2595H165.3V29.1692H173.398V31.2595H170.703V39.0574H167.979V31.2595H167.981Z" fill="black"/>
<path d="M174.417 29.1692H181.571V31.0897H177.127V33.0387H180.936V34.9465H177.127V37.1353H181.571V39.0558H174.417V29.1676V29.1692Z" fill="black"/>
<path d="M182.218 34.128V34.0994C182.218 32.5455 182.627 31.3028 183.445 30.3695C184.273 29.4283 185.407 28.9569 186.846 28.9569C188.059 28.9569 189.015 29.2648 189.711 29.8822C190.407 30.4996 190.84 31.3678 191.009 32.4884L188.541 32.7852C188.447 32.0884 188.268 31.5773 188.005 31.252C187.742 30.9266 187.371 30.7647 186.89 30.7647C185.659 30.7647 185.042 31.8757 185.042 34.0978V34.1264C185.042 35.3501 185.207 36.2119 185.535 36.7119C185.874 37.2119 186.324 37.4611 186.889 37.4611C187.36 37.4611 187.735 37.3008 188.018 36.9801C188.3 36.6595 188.498 36.1183 188.611 35.3549L191.093 35.6374C190.933 36.8341 190.485 37.7372 189.746 38.3499C189.007 38.9626 188.04 39.2673 186.846 39.2673C185.426 39.2673 184.301 38.8102 183.474 37.8975C182.637 36.9754 182.218 35.7183 182.218 34.1264V34.128Z" fill="black"/>
<path d="M192.238 29.1692H194.806L198.319 34.7767V29.1692H200.746V39.0574H198.305L194.665 33.2515V39.0574H192.238V29.1692Z" fill="black"/>
<path d="M201.945 34.1278V34.0993C201.945 32.5073 202.369 31.255 203.215 30.3424C204.062 29.4202 205.186 28.9583 206.587 28.9583C207.989 28.9583 209.108 29.4202 209.945 30.3424C210.792 31.2661 211.215 32.5184 211.215 34.0993V34.1278C211.215 35.7198 210.792 36.9769 209.945 37.899C209.118 38.8132 207.998 39.2688 206.587 39.2688C205.176 39.2688 204.062 38.8116 203.215 37.899C202.369 36.9769 201.945 35.7198 201.945 34.1278ZM208.393 34.1278V34.0993C208.393 31.8677 207.791 30.7519 206.587 30.7519C205.384 30.7519 204.767 31.8677 204.767 34.0993V34.1278C204.767 36.3594 205.375 37.4752 206.587 37.4752C207.8 37.4752 208.393 36.3594 208.393 34.1278Z" fill="black"/>
<path d="M212.415 29.1692H215.124V36.9671H219.415V39.0574H212.417V29.1692H212.415Z" fill="black"/>
<path d="M219.737 34.1278V34.0993C219.737 32.5073 220.16 31.255 221.007 30.3424C221.853 29.4202 222.977 28.9583 224.379 28.9583C225.78 28.9583 226.9 29.4202 227.737 30.3424C228.583 31.2661 229.007 32.5184 229.007 34.0993V34.1278C229.007 35.7198 228.583 36.9769 227.737 37.899C226.909 38.8132 225.79 39.2688 224.379 39.2688C222.968 39.2688 221.853 38.8116 221.007 37.899C220.16 36.9769 219.737 35.7198 219.737 34.1278ZM226.185 34.1278V34.0993C226.185 31.8677 225.582 30.7519 224.379 30.7519C223.176 30.7519 222.559 31.8677 222.559 34.0993V34.1278C222.559 36.3594 223.166 37.4752 224.379 37.4752C225.592 37.4752 226.185 36.3594 226.185 34.1278Z" fill="black"/>
<path d="M229.911 34.128V34.0994C229.911 32.5646 230.32 31.3266 231.138 30.3838C231.956 29.433 233.114 28.9569 234.609 28.9569C236.988 28.9569 238.357 29.9743 238.715 32.0075L236.316 32.29C236.091 31.2726 235.535 30.7647 234.651 30.7647C234.011 30.7647 233.532 31.0266 233.212 31.5488C232.892 32.071 232.732 32.9217 232.732 34.0978V34.1264C232.732 35.3136 232.889 36.1659 233.204 36.6833C233.52 37.2008 234.011 37.4595 234.678 37.4595C235.167 37.4595 235.56 37.2897 235.856 36.9516C236.153 36.6119 236.3 36.1421 236.3 35.539V35.4818H234.466V33.6312H238.826V39.0546H236.808L236.667 37.6849C236.205 38.7403 235.313 39.2673 233.986 39.2673C232.819 39.2673 231.845 38.834 231.065 37.9674C230.293 37.1008 229.908 35.8199 229.908 34.1248L229.911 34.128Z" fill="black"/>
<path d="M240.239 29.1696H242.948V39.0578H240.239V29.1696ZM241.451 26.7396H243.822L242.453 28.5331H240.746L241.451 26.7396Z" fill="black"/>
<path d="M247.066 29.1692H250.41L253.598 39.0574H250.776L250.183 36.9956H246.909L246.316 39.0574H243.875L247.063 29.1692H247.066ZM249.649 35.1307L248.549 31.3738L247.463 35.1307H249.649Z" fill="black"/>
</g>
<defs>
<clipPath id="clip0_58_508">
<rect width="297" height="39.8799" fill="white"/>
</clipPath>
</defs>
</svg>
